<?xml version="1.0" encoding="UTF-8" standalone="no"?><svg xmlns="http://www.w3.org/2000/svg" xmlns:xlink="http://www.w3.org/1999/xlink" contentScriptType="application/ecmascript" contentStyleType="text/css" height="705px" preserveAspectRatio="none" style="width:548px;height:705px;" version="1.1" viewBox="0 0 548 705" width="548px" zoomAndPan="magnify"><defs/><g><rect fill="#FFFFFF" height="209.9297" rx="3.5" ry="3.5" style="stroke: #000000; stroke-width: 1.0;" width="499" x="26" y="53.2969"/><rect fill="#FFFFFF" height="274.1953" rx="3.5" ry="3.5" style="stroke: #000000; stroke-width: 1.0;" width="533" x="9" y="362.3594"/><line style="stroke: #383838; stroke-width: 1.0;" x1="180" x2="180" y1="36.2969" y2="270.2266"/><line style="stroke: #383838; stroke-width: 1.0; stroke-dasharray: 1.0,4.0;" x1="180" x2="180" y1="270.2266" y2="298.2266"/><line style="stroke: #383838; stroke-width: 1.0;" x1="180" x2="180" y1="298.2266" y2="327.3594"/><line style="stroke: #383838; stroke-width: 1.0; stroke-dasharray: 1.0,4.0;" x1="180" x2="180" y1="327.3594" y2="355.3594"/><line style="stroke: #383838; stroke-width: 1.0;" x1="180" x2="180" y1="355.3594" y2="653.5547"/><line style="stroke: #383838; stroke-width: 1.0;" x1="371.5" x2="371.5" y1="36.2969" y2="270.2266"/><line style="stroke: #383838; stroke-width: 1.0; stroke-dasharray: 1.0,4.0;" x1="371.5" x2="371.5" y1="270.2266" y2="298.2266"/><line style="stroke: #383838; stroke-width: 1.0;" x1="371.5" x2="371.5" y1="298.2266" y2="327.3594"/><line style="stroke: #383838; stroke-width: 1.0; stroke-dasharray: 1.0,4.0;" x1="371.5" x2="371.5" y1="327.3594" y2="355.3594"/><line style="stroke: #383838; stroke-width: 1.0;" x1="371.5" x2="371.5" y1="355.3594" y2="653.5547"/><rect fill="#F8F8F8" height="30.2969" rx="3.5" ry="3.5" style="stroke: #383838; stroke-width: 1.5;" width="33" x="164" y="5"/><text fill="#000000" font-family="メイリオ" font-size="14" lengthAdjust="spacingAndGlyphs" textLength="19" x="171" y="24.9951">PC</text><rect fill="#F8F8F8" height="30.2969" rx="3.5" ry="3.5" style="stroke: #383838; stroke-width: 1.5;" width="33" x="164" y="652.5547"/><text fill="#000000" font-family="メイリオ" font-size="14" lengthAdjust="spacingAndGlyphs" textLength="19" x="171" y="672.5498">PC</text><rect fill="#F8F8F8" height="30.2969" rx="3.5" ry="3.5" style="stroke: #383838; stroke-width: 1.5;" width="58" x="342.5" y="5"/><text fill="#000000" font-family="メイリオ" font-size="14" lengthAdjust="spacingAndGlyphs" textLength="44" x="349.5" y="24.9951">Server</text><rect fill="#F8F8F8" height="30.2969" rx="3.5" ry="3.5" style="stroke: #383838; stroke-width: 1.5;" width="58" x="342.5" y="652.5547"/><text fill="#000000" font-family="メイリオ" font-size="14" lengthAdjust="spacingAndGlyphs" textLength="44" x="349.5" y="672.5498">Server</text><path d="M29.5,53.2969 L233,53.2969 L233,60.2969 L223,70.2969 L26,70.2969 L26,56.7969 " fill="#EEEEEE" style="stroke: #000000; stroke-width: 1.0;"/><rect fill="none" height="209.9297" rx="3.5" ry="3.5" style="stroke: #000000; stroke-width: 1.0;" width="499" x="26" y="53.2969"/><text fill="#000000" font-family="メイリオ" font-size="13" font-weight="bold" lengthAdjust="spacingAndGlyphs" textLength="162" x="41" y="66.3638">TCP 3-way-handshake</text><polygon fill="#383838" points="359.5,87.5625,369.5,91.5625,359.5,95.5625,363.5,91.5625" style="stroke: #383838; stroke-width: 1.0;"/><line style="stroke: #383838; stroke-width: 1.0;" x1="180.5" x2="365.5" y1="91.5625" y2="91.5625"/><text fill="#000000" font-family="メイリオ" font-size="13" lengthAdjust="spacingAndGlyphs" textLength="80" x="236" y="86.4966">[tcp/80] SYN</text><path d="M78,108.0625 L78,126.0625 A3.5,3.5 0 0 0 81.5,129.5625 L278.5,129.5625 A3.5,3.5 0 0 0 282,126.0625 L282,114.5625 L272,104.5625 L81.5,104.5625 A3.5,3.5 0 0 0 78,108.0625 " fill="#ECECEC" style="stroke: #383838; stroke-width: 1.0;"/><path d="M272,104.5625 L272,112.8125 A1.75,1.75 0 0 0 273.75,114.5625 L282,114.5625 L272,104.5625 " fill="#ECECEC" style="stroke: #383838; stroke-width: 1.0;"/><text fill="#000000" font-family="メイリオ" font-size="13" lengthAdjust="spacingAndGlyphs" textLength="183" x="84" y="121.6294">SYN=1, ACK=0, SEQNUM=0</text><polygon fill="#383838" points="191.5,151.8281,181.5,155.8281,191.5,159.8281,187.5,155.8281" style="stroke: #383838; stroke-width: 1.0;"/><line style="stroke: #383838; stroke-width: 1.0;" x1="185.5" x2="370.5" y1="155.8281" y2="155.8281"/><text fill="#000000" font-family="メイリオ" font-size="13" lengthAdjust="spacingAndGlyphs" textLength="159" x="196.5" y="150.7622">[tcp/random] SYN + ACK</text><path d="M227,172.3281 L227,190.3281 A3.5,3.5 0 0 0 230.5,193.8281 L511.5,193.8281 A3.5,3.5 0 0 0 515,190.3281 L515,178.8281 L505,168.8281 L230.5,168.8281 A3.5,3.5 0 0 0 227,172.3281 " fill="#ECECEC" style="stroke: #383838; stroke-width: 1.0;"/><path d="M505,168.8281 L505,177.0781 A1.75,1.75 0 0 0 506.75,178.8281 L515,178.8281 L505,168.8281 " fill="#ECECEC" style="stroke: #383838; stroke-width: 1.0;"/><text fill="#000000" font-family="メイリオ" font-size="13" lengthAdjust="spacingAndGlyphs" textLength="267" x="233" y="185.895">SYN=1, ACK=1, SEQNUM=0, ACKNUM=1</text><polygon fill="#383838" points="359.5,216.0938,369.5,220.0938,359.5,224.0938,363.5,220.0938" style="stroke: #383838; stroke-width: 1.0;"/><line style="stroke: #383838; stroke-width: 1.0;" x1="180.5" x2="365.5" y1="220.0938" y2="220.0938"/><text fill="#000000" font-family="メイリオ" font-size="13" lengthAdjust="spacingAndGlyphs" textLength="80" x="236" y="215.0278">[tcp/80] ACK</text><path d="M36,236.5938 L36,254.5938 A3.5,3.5 0 0 0 39.5,258.0938 L320.5,258.0938 A3.5,3.5 0 0 0 324,254.5938 L324,243.0938 L314,233.0938 L39.5,233.0938 A3.5,3.5 0 0 0 36,236.5938 " fill="#ECECEC" style="stroke: #383838; stroke-width: 1.0;"/><path d="M314,233.0938 L314,241.3438 A1.75,1.75 0 0 0 315.75,243.0938 L324,243.0938 L314,233.0938 " fill="#ECECEC" style="stroke: #383838; stroke-width: 1.0;"/><text fill="#000000" font-family="メイリオ" font-size="13" lengthAdjust="spacingAndGlyphs" textLength="267" x="42" y="250.1606">SYN=0, ACK=1, SEQNUM=1, ACKNUM=1</text><line style="stroke: #383838; stroke-width: 1.0;" x1="180.5" x2="190.5" y1="319.3594" y2="315.3594"/><line style="stroke: #383838; stroke-width: 1.0;" x1="180.5" x2="190.5" y1="319.3594" y2="323.3594"/><line style="stroke: #383838; stroke-width: 1.0;" x1="369.5" x2="359.5" y1="319.3594" y2="315.3594"/><line style="stroke: #383838; stroke-width: 1.0;" x1="369.5" x2="359.5" y1="319.3594" y2="323.3594"/><line style="stroke: #383838; stroke-width: 1.0; stroke-dasharray: 2.0,2.0;" x1="180.5" x2="370.5" y1="319.3594" y2="319.3594"/><text fill="#000000" font-family="メイリオ" font-size="13" lengthAdjust="spacingAndGlyphs" textLength="167" x="192.5" y="314.2935">TCP session is established</text><path d="M12.5,362.3594 L344,362.3594 L344,369.3594 L334,379.3594 L9,379.3594 L9,365.8594 " fill="#EEEEEE" style="stroke: #000000; stroke-width: 1.0;"/><rect fill="none" height="274.1953" rx="3.5" ry="3.5" style="stroke: #000000; stroke-width: 1.0;" width="533" x="9" y="362.3594"/><text fill="#000000" font-family="メイリオ" font-size="13" font-weight="bold" lengthAdjust="spacingAndGlyphs" textLength="290" x="24" y="375.4263">Terminate TCP session (TCP four wave)</text><polygon fill="#383838" points="191.5,396.625,181.5,400.625,191.5,404.625,187.5,400.625" style="stroke: #383838; stroke-width: 1.0;"/><line style="stroke: #383838; stroke-width: 1.0;" x1="185.5" x2="370.5" y1="400.625" y2="400.625"/><text fill="#000000" font-family="メイリオ" font-size="13" lengthAdjust="spacingAndGlyphs" textLength="74" x="239" y="395.5591">[tcp/80] FIN</text><path d="M210,417.125 L210,435.125 A3.5,3.5 0 0 0 213.5,438.625 L528.5,438.625 A3.5,3.5 0 0 0 532,435.125 L532,423.625 L522,413.625 L213.5,413.625 A3.5,3.5 0 0 0 210,417.125 " fill="#ECECEC" style="stroke: #383838; stroke-width: 1.0;"/><path d="M522,413.625 L522,421.875 A1.75,1.75 0 0 0 523.75,423.625 L532,423.625 L522,413.625 " fill="#ECECEC" style="stroke: #383838; stroke-width: 1.0;"/><text fill="#000000" font-family="メイリオ" font-size="13" lengthAdjust="spacingAndGlyphs" textLength="301" x="216" y="430.6919">ACK=1, FIN=1, SEQNUM=1678, ACKNUM=901</text><polygon fill="#383838" points="359.5,460.8906,369.5,464.8906,359.5,468.8906,363.5,464.8906" style="stroke: #383838; stroke-width: 1.0;"/><line style="stroke: #383838; stroke-width: 1.0;" x1="180.5" x2="365.5" y1="464.8906" y2="464.8906"/><text fill="#000000" font-family="メイリオ" font-size="13" lengthAdjust="spacingAndGlyphs" textLength="114" x="219" y="459.8247">[tcp/random] ACK</text><path d="M43,481.3906 L43,499.3906 A3.5,3.5 0 0 0 46.5,502.8906 L314.5,502.8906 A3.5,3.5 0 0 0 318,499.3906 L318,487.8906 L308,477.8906 L46.5,477.8906 A3.5,3.5 0 0 0 43,481.3906 " fill="#ECECEC" style="stroke: #383838; stroke-width: 1.0;"/><path d="M308,477.8906 L308,486.1406 A1.75,1.75 0 0 0 309.75,487.8906 L318,487.8906 L308,477.8906 " fill="#ECECEC" style="stroke: #383838; stroke-width: 1.0;"/><text fill="#000000" font-family="メイリオ" font-size="13" lengthAdjust="spacingAndGlyphs" textLength="254" x="49" y="494.9575">ACK=1, SEQNUM=901, ACKNUM=1679</text><polygon fill="#383838" points="359.5,525.1563,369.5,529.1563,359.5,533.1563,363.5,529.1563" style="stroke: #383838; stroke-width: 1.0;"/><line style="stroke: #383838; stroke-width: 1.0;" x1="180.5" x2="365.5" y1="529.1563" y2="529.1563"/><text fill="#000000" font-family="メイリオ" font-size="13" lengthAdjust="spacingAndGlyphs" textLength="108" x="222" y="524.0903">[tcp/random] FIN</text><path d="M19,545.6563 L19,563.6563 A3.5,3.5 0 0 0 22.5,567.1563 L337.5,567.1563 A3.5,3.5 0 0 0 341,563.6563 L341,552.1563 L331,542.1563 L22.5,542.1563 A3.5,3.5 0 0 0 19,545.6563 " fill="#ECECEC" style="stroke: #383838; stroke-width: 1.0;"/><path d="M331,542.1563 L331,550.4063 A1.75,1.75 0 0 0 332.75,552.1563 L341,552.1563 L331,542.1563 " fill="#ECECEC" style="stroke: #383838; stroke-width: 1.0;"/><text fill="#000000" font-family="メイリオ" font-size="13" lengthAdjust="spacingAndGlyphs" textLength="301" x="25" y="559.2231">ACK=1, FIN=1, SEQNUM=1679, ACKNUM=902</text><polygon fill="#383838" points="191.5,589.4219,181.5,593.4219,191.5,597.4219,187.5,593.4219" style="stroke: #383838; stroke-width: 1.0;"/><line style="stroke: #383838; stroke-width: 1.0;" x1="185.5" x2="370.5" y1="593.4219" y2="593.4219"/><text fill="#000000" font-family="メイリオ" font-size="13" lengthAdjust="spacingAndGlyphs" textLength="80" x="236" y="588.356">[tcp/80] ACK</text><path d="M234,609.9219 L234,627.9219 A3.5,3.5 0 0 0 237.5,631.4219 L505.5,631.4219 A3.5,3.5 0 0 0 509,627.9219 L509,616.4219 L499,606.4219 L237.5,606.4219 A3.5,3.5 0 0 0 234,609.9219 " fill="#ECECEC" style="stroke: #383838; stroke-width: 1.0;"/><path d="M499,606.4219 L499,614.6719 A1.75,1.75 0 0 0 500.75,616.4219 L509,616.4219 L499,606.4219 " fill="#ECECEC" style="stroke: #383838; stroke-width: 1.0;"/><text fill="#000000" font-family="メイリオ" font-size="13" lengthAdjust="spacingAndGlyphs" textLength="254" x="240" y="623.4888">ACK=1, SEQNUM=902, ACKNUM=1680</text><text fill="#888888" font-family="メイリオ" font-size="10" lengthAdjust="spacingAndGlyphs" textLength="154" x="199" y="697.1338">Copyright 2020 oresmalabo.net</text><!--MD5=[52eddff4f05aac227cbd62e873367af4]
@startuml
skinparam defaultFontName メイリオ
skinparam monochrome true
skinparam shadowing false
skinparam RoundCorner 7
skinparam SequenceGroupBorderThickness 1
skinparam sequenceMessageAlign center
skinparam sequenceReferenceAlign left

participant "PC" as pc
participant "Server" as server

group TCP 3-way-handshake
  pc -> server: [tcp/80] SYN
  note over pc: SYN=1, ACK=0, SEQNUM=0
  server -> pc: [tcp/random] SYN + ACK
  note over server: SYN=1, ACK=1, SEQNUM=0, ACKNUM=1
  pc -> server: [tcp/80] ACK
  note over pc: SYN=0, ACK=1, SEQNUM=1, ACKNUM=1
end

...
pc <<- ->> server: TCP session is established
...

group Terminate TCP session (TCP four wave)
  server -> pc: [tcp/80] FIN
  note over server
    ACK=1, FIN=1, SEQNUM=1678, ACKNUM=901
  end note
  pc -> server: [tcp/random] ACK
  note over pc: ACK=1, SEQNUM=901, ACKNUM=1679
  pc -> server: [tcp/random] FIN
  note over pc: ACK=1, FIN=1, SEQNUM=1679, ACKNUM=902
  server -> pc: [tcp/80] ACK
  note over server: ACK=1, SEQNUM=902, ACKNUM=1680
end

footer Copyright 2020 oresmalabo.net
@enduml

PlantUML version 1.2020.19(Mon Oct 12 15:10:01 UTC 2020)
(GPL source distribution)
Java Runtime: OpenJDK Runtime Environment
JVM: OpenJDK 64-Bit Server VM
Default Encoding: UTF-8
Language: en
Country: null
--></g></svg>